<svg aria-hidden="true" style="position: absolute; width: 0; height: 0; overflow: hidden;" version="1.1"
    xmlns="http://www.w3.org/2000/svg" xmlns:xlink="http://www.w3.org/1999/xlink">
    <defs>
        <symbol id="icon-Assist-Control" viewBox="0 0 295 32">
            <path
                d="M11.855 1.575h2.993l11.422 27.963h-3.781l-3.308-8.192h-11.737l-3.269 8.192h-3.781l11.461-27.963zM18.393 18.59l-5.041-12.918-5.199 12.918h10.24zM43.51 12.721c-0.394-0.394-0.919-0.761-1.575-1.103-0.63-0.341-1.352-0.617-2.166-0.827s-1.68-0.315-2.599-0.315c-1.759 0-3.059 0.289-3.899 0.866s-1.26 1.378-1.26 2.402c0 0.709 0.223 1.273 0.67 1.694s1.116 0.775 2.009 1.063c0.919 0.263 2.061 0.551 3.426 0.866 1.602 0.341 2.993 0.748 4.175 1.221s2.087 1.103 2.718 1.89c0.657 0.761 0.985 1.799 0.985 3.111 0 1.076-0.223 2.009-0.67 2.796-0.42 0.788-1.024 1.431-1.812 1.93-0.761 0.499-1.667 0.866-2.718 1.103-1.024 0.236-2.14 0.354-3.348 0.354-1.785 0-3.505-0.249-5.159-0.748-1.628-0.525-3.098-1.273-4.411-2.245l1.497-2.678c0.525 0.473 1.195 0.932 2.009 1.378 0.814 0.42 1.746 0.775 2.796 1.063 1.050 0.263 2.166 0.394 3.348 0.394 1.575 0 2.81-0.249 3.702-0.748 0.919-0.525 1.378-1.287 1.378-2.284 0-0.761-0.262-1.365-0.788-1.812-0.525-0.473-1.286-0.866-2.284-1.182-0.971-0.315-2.179-0.63-3.623-0.945-1.575-0.368-2.888-0.775-3.938-1.221-1.050-0.473-1.851-1.076-2.402-1.812-0.525-0.735-0.788-1.68-0.788-2.836 0-1.392 0.368-2.56 1.103-3.505 0.735-0.972 1.733-1.694 2.993-2.166 1.287-0.499 2.731-0.748 4.332-0.748 1.575 0 3.007 0.223 4.293 0.67 1.313 0.446 2.455 1.050 3.426 1.812l-1.418 2.56zM64.203 12.721c-0.394-0.394-0.919-0.761-1.575-1.103-0.63-0.341-1.352-0.617-2.166-0.827s-1.681-0.315-2.599-0.315c-1.759 0-3.059 0.289-3.899 0.866s-1.26 1.378-1.26 2.402c0 0.709 0.223 1.273 0.67 1.694s1.116 0.775 2.009 1.063c0.919 0.263 2.061 0.551 3.426 0.866 1.601 0.341 2.993 0.748 4.175 1.221s2.087 1.103 2.718 1.89c0.656 0.761 0.985 1.799 0.985 3.111 0 1.076-0.223 2.009-0.67 2.796-0.42 0.788-1.024 1.431-1.812 1.93-0.762 0.499-1.667 0.866-2.718 1.103-1.024 0.236-2.14 0.354-3.348 0.354-1.786 0-3.505-0.249-5.159-0.748-1.628-0.525-3.098-1.273-4.411-2.245l1.497-2.678c0.525 0.473 1.195 0.932 2.009 1.378 0.814 0.42 1.746 0.775 2.796 1.063 1.050 0.263 2.166 0.394 3.348 0.394 1.575 0 2.809-0.249 3.702-0.748 0.919-0.525 1.378-1.287 1.378-2.284 0-0.761-0.263-1.365-0.788-1.812-0.525-0.473-1.287-0.866-2.284-1.182-0.972-0.315-2.179-0.63-3.623-0.945-1.575-0.368-2.888-0.775-3.938-1.221-1.050-0.473-1.851-1.076-2.402-1.812-0.525-0.735-0.788-1.68-0.788-2.836 0-1.392 0.367-2.56 1.103-3.505 0.735-0.972 1.733-1.694 2.993-2.166 1.286-0.499 2.731-0.748 4.332-0.748 1.575 0 3.006 0.223 4.293 0.67 1.313 0.446 2.455 1.050 3.426 1.812l-1.418 2.56zM71.15 29.538v-21.701h3.151v21.701h-3.151zM94.28 12.721c-0.394-0.394-0.919-0.761-1.575-1.103-0.63-0.341-1.352-0.617-2.166-0.827s-1.68-0.315-2.599-0.315c-1.759 0-3.059 0.289-3.899 0.866s-1.26 1.378-1.26 2.402c0 0.709 0.223 1.273 0.67 1.694s1.116 0.775 2.009 1.063c0.919 0.263 2.061 0.551 3.426 0.866 1.602 0.341 2.993 0.748 4.175 1.221s2.087 1.103 2.718 1.89c0.656 0.761 0.985 1.799 0.985 3.111 0 1.076-0.223 2.009-0.67 2.796-0.42 0.788-1.024 1.431-1.812 1.93-0.761 0.499-1.667 0.866-2.718 1.103-1.024 0.236-2.14 0.354-3.348 0.354-1.785 0-3.505-0.249-5.159-0.748-1.628-0.525-3.098-1.273-4.411-2.245l1.497-2.678c0.525 0.473 1.195 0.932 2.009 1.378 0.814 0.42 1.746 0.775 2.796 1.063 1.050 0.263 2.166 0.394 3.348 0.394 1.575 0 2.81-0.249 3.702-0.748 0.919-0.525 1.378-1.287 1.378-2.284 0-0.761-0.262-1.365-0.788-1.812-0.525-0.473-1.286-0.866-2.284-1.182-0.971-0.315-2.179-0.63-3.623-0.945-1.575-0.368-2.888-0.775-3.938-1.221-1.050-0.473-1.851-1.076-2.402-1.812-0.525-0.735-0.788-1.68-0.788-2.836 0-1.392 0.368-2.56 1.103-3.505 0.735-0.972 1.733-1.694 2.993-2.166 1.287-0.499 2.731-0.748 4.332-0.748 1.575 0 3.007 0.223 4.293 0.67 1.313 0.446 2.455 1.050 3.426 1.812l-1.418 2.56zM118.438 10.634h-8.153v18.905h-3.151v-18.905h-8.192v-2.796h19.495v2.796zM129.728 15.36c0-1.707 0.289-3.374 0.866-5.002 0.604-1.654 1.471-3.151 2.599-4.49 1.155-1.365 2.56-2.442 4.214-3.23 1.654-0.814 3.532-1.221 5.632-1.221 2.495 0 4.634 0.578 6.42 1.733 1.786 1.129 3.111 2.586 3.978 4.372l-2.796 1.812c-0.551-1.182-1.26-2.114-2.127-2.796-0.84-0.709-1.759-1.208-2.757-1.497-0.971-0.289-1.93-0.433-2.875-0.433-1.549 0-2.928 0.315-4.135 0.945-1.182 0.63-2.179 1.47-2.993 2.521s-1.431 2.232-1.851 3.545c-0.394 1.287-0.591 2.586-0.591 3.899 0 1.444 0.236 2.836 0.709 4.175 0.499 1.339 1.182 2.521 2.048 3.545s1.89 1.838 3.072 2.442c1.182 0.604 2.468 0.906 3.86 0.906 0.972 0 1.969-0.171 2.993-0.512s1.983-0.866 2.875-1.575c0.893-0.735 1.602-1.68 2.127-2.836l2.954 1.615c-0.577 1.392-1.47 2.573-2.678 3.545s-2.56 1.707-4.057 2.206c-1.47 0.499-2.928 0.748-4.372 0.748-1.917 0-3.676-0.407-5.278-1.221-1.601-0.84-2.993-1.943-4.175-3.308-1.155-1.392-2.061-2.941-2.718-4.647-0.63-1.733-0.945-3.479-0.945-5.238zM167.839 29.696c-1.68 0-3.203-0.302-4.569-0.906-1.365-0.63-2.547-1.47-3.545-2.521s-1.772-2.232-2.324-3.545c-0.525-1.313-0.788-2.665-0.788-4.057 0-1.444 0.276-2.823 0.827-4.135 0.577-1.313 1.365-2.481 2.363-3.505 1.024-1.024 2.219-1.825 3.584-2.402 1.392-0.604 2.888-0.906 4.49-0.906 1.68 0 3.203 0.315 4.569 0.945s2.534 1.47 3.505 2.521c0.998 1.050 1.759 2.232 2.284 3.545 0.551 1.313 0.827 2.652 0.827 4.017 0 1.444-0.289 2.823-0.866 4.135-0.551 1.313-1.326 2.481-2.324 3.505s-2.179 1.838-3.545 2.442c-1.365 0.578-2.862 0.866-4.49 0.866zM159.804 18.708c0 1.050 0.184 2.061 0.551 3.033 0.394 0.971 0.945 1.851 1.654 2.639 0.709 0.761 1.562 1.365 2.56 1.812s2.1 0.67 3.308 0.67c1.234 0 2.337-0.236 3.308-0.709 0.998-0.473 1.838-1.103 2.521-1.89s1.208-1.667 1.575-2.639c0.368-0.971 0.551-1.956 0.551-2.954 0-1.050-0.197-2.061-0.591-3.033-0.368-0.972-0.906-1.838-1.615-2.599s-1.562-1.365-2.56-1.812c-0.972-0.446-2.048-0.67-3.23-0.67-1.234 0-2.35 0.236-3.348 0.709-0.998 0.446-1.851 1.063-2.56 1.851-0.683 0.788-1.208 1.667-1.575 2.639s-0.551 1.956-0.551 2.954zM186.916 13.706v15.833h-3.151v-21.701h2.442l14.572 16.148v-16.148h3.151v21.701h-2.639l-14.375-15.833zM227.361 10.634h-8.153v18.905h-3.151v-18.905h-8.192v-2.796h19.495v2.796zM231.304 29.538v-21.701h10.24c1.418 0 2.665 0.354 3.742 1.063 1.103 0.683 1.957 1.562 2.56 2.639 0.63 1.050 0.945 2.153 0.945 3.308 0 0.972-0.209 1.904-0.63 2.796-0.394 0.866-0.958 1.628-1.694 2.284-0.735 0.63-1.601 1.076-2.599 1.339l5.75 8.271h-3.623l-5.356-7.641h-6.183v7.641h-3.151zM234.454 19.102h7.089c0.814 0 1.523-0.197 2.127-0.591s1.077-0.906 1.418-1.536c0.341-0.656 0.512-1.365 0.512-2.127 0-0.788-0.197-1.497-0.591-2.127-0.368-0.63-0.88-1.129-1.536-1.497-0.63-0.394-1.339-0.591-2.127-0.591h-6.892v8.468zM263.685 29.696c-1.681 0-3.202-0.302-4.569-0.906-1.366-0.63-2.548-1.47-3.545-2.521s-1.772-2.232-2.324-3.545c-0.524-1.313-0.788-2.665-0.788-4.057 0-1.444 0.276-2.823 0.827-4.135 0.578-1.313 1.366-2.481 2.363-3.505 1.024-1.024 2.218-1.825 3.584-2.402 1.391-0.604 2.887-0.906 4.49-0.906 1.681 0 3.202 0.315 4.569 0.945s2.533 1.47 3.505 2.521c0.997 1.050 1.76 2.232 2.284 3.545 0.551 1.313 0.827 2.652 0.827 4.017 0 1.444-0.288 2.823-0.866 4.135-0.551 1.313-1.327 2.481-2.324 3.505s-2.178 1.838-3.545 2.442c-1.366 0.578-2.863 0.866-4.49 0.866zM255.65 18.708c0 1.050 0.185 2.061 0.551 3.033 0.394 0.971 0.945 1.851 1.654 2.639 0.709 0.761 1.563 1.365 2.56 1.812s2.1 0.67 3.308 0.67c1.233 0 2.336-0.236 3.308-0.709 0.997-0.473 1.839-1.103 2.521-1.89s1.209-1.667 1.575-2.639c0.367-0.971 0.551-1.956 0.551-2.954 0-1.050-0.197-2.061-0.591-3.033-0.367-0.972-0.906-1.838-1.615-2.599s-1.563-1.365-2.56-1.812c-0.972-0.446-2.048-0.67-3.23-0.67-1.233 0-2.351 0.236-3.348 0.709-0.997 0.446-1.851 1.063-2.56 1.851-0.682 0.788-1.209 1.667-1.575 2.639s-0.551 1.956-0.551 2.954zM279.611 29.538v-21.701h3.151v18.905h12.485v2.796h-15.636z">
            </path>
        </symbol>
        <symbol id="icon-logo" viewBox="0 0 30 32">
            <path d="M0 0h30.316v32h-30.316v-32z"></path>
        </symbol>
        <symbol id="icon-support" viewBox="0 0 19 32">
            <path
                d="M0 10.169c0-0.153 0.124-0.276 0.276-0.276h18.128c0.153 0 0.276 0.124 0.276 0.276v21.554c0 0.153-0.124 0.276-0.276 0.276h-18.128c-0.153 0-0.276-0.124-0.276-0.276v-21.554z">
            </path>
            <path
                d="M17.22 8.394c0.071-0.383 0.071-0.774 0-1.156l0.7-0.404c0.081-0.046 0.117-0.141 0.090-0.231-0.182-0.586-0.494-1.118-0.9-1.558-0.062-0.068-0.163-0.084-0.244-0.038l-0.7 0.404c-0.296-0.252-0.635-0.448-1.001-0.578v-0.809c0-0.092-0.065-0.174-0.155-0.193-0.605-0.136-1.22-0.13-1.795 0-0.090 0.019-0.155 0.1-0.155 0.193v0.809c-0.366 0.13-0.705 0.326-1.001 0.578l-0.7-0.404c-0.079-0.046-0.182-0.030-0.244 0.038-0.407 0.44-0.719 0.972-0.9 1.558-0.027 0.090 0.011 0.185 0.089 0.231l0.7 0.404c-0.071 0.383-0.071 0.774 0 1.156l-0.7 0.405c-0.081 0.046-0.117 0.141-0.089 0.231 0.182 0.586 0.494 1.116 0.9 1.558 0.062 0.068 0.163 0.084 0.244 0.038l0.7-0.404c0.296 0.252 0.635 0.448 1.001 0.578v0.809c0 0.092 0.065 0.174 0.155 0.193 0.605 0.136 1.22 0.13 1.795 0 0.090-0.019 0.155-0.1 0.155-0.193v-0.809c0.366-0.13 0.705-0.326 1.001-0.578l0.7 0.404c0.079 0.046 0.182 0.030 0.244-0.038 0.407-0.44 0.719-0.972 0.9-1.558 0.027-0.090-0.011-0.185-0.090-0.231l-0.7-0.405zM14.115 9.132c-0.727 0-1.315-0.592-1.315-1.317s0.591-1.317 1.315-1.317c0.724 0 1.315 0.592 1.315 1.317s-0.588 1.317-1.315 1.317zM3.267 5.209c0.957 0 1.736-0.779 1.736-1.737s-0.778-1.737-1.736-1.737c-0.957 0-1.736 0.779-1.736 1.737s0.778 1.737 1.736 1.737zM9.342 6.078c0.052 0 0.1-0.014 0.152-0.016 0.225-0.589 0.556-1.143 0.984-1.607 0.201-0.217 0.485-0.342 0.784-0.342 0.187 0 0.372 0.049 0.532 0.144l0.214 0.125c0.022-0.014 0.043-0.024 0.065-0.038 0.19-0.396 0.304-0.836 0.304-1.303 0-1.68-1.359-3.040-3.037-3.040s-3.035 1.357-3.035 3.038 1.359 3.040 3.037 3.040zM12.195 11.358c-0.062-0.033-0.125-0.071-0.184-0.106-0.222 0.13-0.415 0.266-0.746 0.266-0.296 0-0.58-0.125-0.784-0.342-0.496-0.537-0.876-1.192-1.090-1.889-0.29-0.937 0.675-1.349 0.7-1.365-0.003-0.071-0.003-0.141 0-0.212l-0.214-0.125c-0.103-0.060-0.19-0.136-0.266-0.22-0.089 0.005-0.176 0.016-0.266 0.016-0.667 0-1.291-0.163-1.858-0.434h-0.225c-1.728 0-3.127 1.401-3.127 3.127v0.782c0 0.719 0.583 1.303 1.302 1.303h6.926c-0.1-0.163-0.168-0.347-0.168-0.551v-0.25zM5.358 6.583c-0.315-0.312-0.746-0.505-1.223-0.505h-1.736c-0.957 0-1.736 0.779-1.736 1.737v0.869c0 0.48 0.388 0.869 0.868 0.869h1.787c0.171-1.287 0.946-2.37 2.039-2.97z">
            </path>
        </symbol>
    </defs>
</svg>