<svg width="30" height="30" viewBox="0 0 30 30" fill="none" xmlns="http://www.w3.org/2000/svg">
<rect width="30" height="30" fill="#1E1E1E"/>
<g id="Frame 785" clip-path="url(#clip0_3590_1088)">
<rect width="1920" height="1080" transform="translate(-1372 -1001)" fill="#17181C"/>
<g id="Frame 784">
<rect x="-473" y="-26" width="522" height="81" rx="12" fill="#23252C"/>
<g id="send">
<path id="Vector" d="M7.19199 15.9333L10.0592 23.8692C10.0592 23.8692 10.4176 24.6117 10.8015 24.6117C11.1853 24.6117 16.8945 18.6724 16.8945 18.6724L23.2433 6.40979L7.29429 13.8847L7.19199 15.9333Z" fill="#C8DAEA"/>
<path id="Vector_2" d="M10.9936 17.9685L10.4432 23.818C10.4432 23.818 10.2128 25.6104 12.0048 23.818C13.7967 22.0257 15.512 20.6436 15.512 20.6436" fill="#A9C6D8"/>
<g id="send_2">
<path id="Vector_3" d="M7.24377 16.2164L1.34589 14.2948C1.34589 14.2948 0.641031 14.0088 0.867996 13.3603C0.914719 13.2266 1.00897 13.1128 1.29091 12.9173C2.59773 12.0064 25.4789 3.78227 25.4789 3.78227C25.4789 3.78227 26.125 3.56457 26.506 3.70936C26.6003 3.73854 26.6851 3.79224 26.7518 3.86495C26.8185 3.93767 26.8647 4.02679 26.8856 4.12322C26.9268 4.29353 26.944 4.46874 26.9368 4.64381C26.935 4.79525 26.9166 4.93562 26.9027 5.15574C26.7634 7.40425 22.593 24.1856 22.593 24.1856C22.593 24.1856 22.3435 25.1676 21.4495 25.2012C21.2298 25.2083 21.011 25.1711 20.806 25.0918C20.601 25.0125 20.414 24.8927 20.2563 24.7396C18.502 23.2306 12.4386 19.1557 11.0988 18.2595C11.0685 18.2389 11.0431 18.2121 11.0241 18.1808C11.0051 18.1495 10.9931 18.1146 10.9888 18.0783C10.9701 17.9838 11.0728 17.8668 11.0728 17.8668C11.0728 17.8668 21.6308 8.48208 21.9117 7.49688C21.9335 7.42056 21.8513 7.3829 21.7409 7.41633C21.0397 7.67431 8.88348 15.3511 7.54182 16.1983C7.44525 16.2275 7.34317 16.2337 7.24377 16.2164Z" fill="white"/>
</g>
</g>
</g>
</g>
<defs>
<clipPath id="clip0_3590_1088">
<rect width="1920" height="1080" fill="white" transform="translate(-1372 -1001)"/>
</clipPath>
</defs>
</svg>
