<svg width="338" height="579" viewBox="0 0 338 579" fill="none" xmlns="http://www.w3.org/2000/svg">
<path d="M0 184C0 181.239 2.23858 179 5 179H333C335.761 179 338 181.239 338 184V574C338 576.761 335.761 579 333 579H5.00001C2.23858 579 0 576.761 0 574V184Z" fill="#202020"/>
<path d="M311.573 151.873C312.849 144.948 312.849 137.875 311.573 130.949L324.233 123.63C325.706 122.795 326.343 121.076 325.853 119.455C322.565 108.846 316.922 99.2186 309.561 91.2614C308.433 90.0335 306.617 89.7388 305.145 90.5738L292.485 97.8924C287.136 93.3244 281.003 89.7879 274.378 87.4302V72.793C274.378 71.123 273.201 69.6495 271.581 69.3057C260.639 66.8498 249.5 66.948 239.097 69.3057C237.477 69.6495 236.3 71.123 236.3 72.793V87.4302C229.675 89.7879 223.541 93.3244 218.193 97.8924L205.533 90.5738C204.11 89.7388 202.245 90.0335 201.116 91.2614C193.756 99.2186 188.113 108.846 184.825 119.455C184.334 121.076 185.021 122.795 186.444 123.63L199.105 130.949C197.829 137.875 197.829 144.948 199.105 151.873L186.444 159.192C184.972 160.027 184.334 161.746 184.825 163.367C188.113 173.976 193.756 183.554 201.116 191.561C202.245 192.789 204.061 193.083 205.533 192.248L218.193 184.93C223.541 189.498 229.675 193.034 236.3 195.392V210.029C236.3 211.699 237.477 213.173 239.097 213.516C250.039 215.972 261.178 215.874 271.581 213.516C273.201 213.173 274.378 211.699 274.378 210.029V195.392C281.003 193.034 287.136 189.498 292.485 184.93L305.145 192.248C306.568 193.083 308.433 192.789 309.561 191.561C316.922 183.603 322.565 173.976 325.853 163.367C326.343 161.746 325.656 160.027 324.233 159.192L311.573 151.873ZM255.388 165.233C242.237 165.233 231.589 154.526 231.589 141.411C231.589 128.296 242.286 117.589 255.388 117.589C268.49 117.589 279.187 128.296 279.187 141.411C279.187 154.526 268.539 165.233 255.388 165.233ZM59.1074 94.2576C76.4291 94.2576 90.5123 80.1608 90.5123 62.8221C90.5123 45.4834 76.4291 31.3865 59.1074 31.3865C41.7856 31.3865 27.7025 45.4834 27.7025 62.8221C27.7025 80.1608 41.7856 94.2576 59.1074 94.2576ZM169.025 109.975C169.957 109.975 170.84 109.73 171.772 109.681C175.845 99.0221 181.832 89.002 189.585 80.6028C193.216 76.6734 198.368 74.4139 203.766 74.4139C207.152 74.4139 210.489 75.2981 213.384 77.0172L217.26 79.2766C217.653 79.031 218.046 78.8346 218.438 78.589C221.873 71.4177 223.934 63.4606 223.934 55.0123C223.934 24.6082 199.35 0 168.975 0C138.601 0 114.066 24.5591 114.066 54.9632C114.066 85.3673 138.65 109.975 169.025 109.975ZM220.646 205.51C219.518 204.921 218.389 204.233 217.31 203.595C213.286 205.952 209.802 208.408 203.815 208.408C198.467 208.408 193.314 206.149 189.634 202.219C180.654 192.494 173.784 180.656 169.908 168.033C164.657 151.087 182.126 143.621 182.568 143.327C182.519 142.05 182.519 140.772 182.568 139.495L178.691 137.236C176.827 136.155 175.256 134.78 173.882 133.257C172.263 133.356 170.693 133.552 169.074 133.552C157.002 133.552 145.716 130.605 135.461 125.693H131.388C100.13 125.693 74.8098 151.038 74.8098 182.277V196.423C74.8098 209.44 85.3599 220 98.3635 220H223.689C221.873 217.053 220.646 213.713 220.646 210.029V205.51ZM96.9405 119.111C91.2483 113.463 83.4462 109.975 74.8098 109.975H43.4049C26.0831 109.975 12 124.072 12 141.411V157.129C12 165.823 19.017 172.847 27.7025 172.847H60.0397C63.1311 149.565 77.1652 129.967 96.9405 119.111Z" fill="#202020"/>
</svg>
